<?xml version="1.0" encoding="UTF-8" standalone="no"?>
<!-- Created with Inkscape (http://www.inkscape.org/) -->

<svg
   xmlns:dc="http://purl.org/dc/elements/1.1/"
   xmlns:cc="http://creativecommons.org/ns#"
   xmlns:rdf="http://www.w3.org/1999/02/22-rdf-syntax-ns#"
   xmlns:svg="http://www.w3.org/2000/svg"
   xmlns="http://www.w3.org/2000/svg"
   xmlns:sodipodi="http://sodipodi.sourceforge.net/DTD/sodipodi-0.dtd"
   xmlns:inkscape="http://www.inkscape.org/namespaces/inkscape"
   width="34mm"
   height="7mm"
   viewBox="0 0 34 7"
   version="1.1"
   id="svg1476"
   inkscape:version="0.92.3 (2405546, 2018-03-11)"
   sodipodi:docname="logo.svg">
  <defs
     id="defs1470" />
  <sodipodi:namedview
     id="base"
     pagecolor="#ffffff"
     bordercolor="#666666"
     borderopacity="1.0"
     inkscape:pageopacity="0.0"
     inkscape:pageshadow="2"
     inkscape:zoom="6.220786"
     inkscape:cx="83.946863"
     inkscape:cy="2.2491575"
     inkscape:document-units="mm"
     inkscape:current-layer="text2120"
     showgrid="false"
     showguides="false"
     fit-margin-top="0"
     fit-margin-left="0"
     fit-margin-right="0"
     fit-margin-bottom="0"
     inkscape:window-width="1366"
     inkscape:window-height="715"
     inkscape:window-x="0"
     inkscape:window-y="0"
     inkscape:window-maximized="1" />
  <metadata
     id="metadata1473">
    <rdf:RDF>
      <cc:Work
         rdf:about="">
        <dc:format>image/svg+xml</dc:format>
        <dc:type
           rdf:resource="http://purl.org/dc/dcmitype/StillImage" />
        <dc:title />
      </cc:Work>
    </rdf:RDF>
  </metadata>
  <g
     inkscape:label="Layer 1"
     inkscape:groupmode="layer"
     id="layer1"
     transform="translate(-3.1745934,-0.8338795)">
    <g
       aria-label="विচাର @ SMIT"
       style="font-style:normal;font-variant:normal;font-weight:normal;font-stretch:normal;font-size:5.64444447px;line-height:125%;font-family:'Anglepoise Lampshade';-inkscape-font-specification:'Anglepoise Lampshade';letter-spacing:0px;word-spacing:0px;fill:#000000;fill-opacity:1;stroke:none;stroke-width:0.26458332px;stroke-linecap:butt;stroke-linejoin:miter;stroke-opacity:1"
       id="text2023">
      <g
         aria-label="विচাର"
         style="font-style:normal;font-variant:normal;font-weight:normal;font-stretch:normal;font-size:5.64444447px;line-height:125%;font-family:'Anglepoise Lampshade';-inkscape-font-specification:'Anglepoise Lampshade';letter-spacing:0px;word-spacing:0px;fill:#000000;fill-opacity:1;stroke:none;stroke-width:0.26458332px;stroke-linecap:butt;stroke-linejoin:miter;stroke-opacity:1"
         id="text2093"
         transform="translate(0,-0.06242792)">
        <path
           d="M 4.6249955,3.2583704 H 4.17344 V 2.6374815 H 4.5967733 Q 4.52904,2.4907259 4.4838844,2.3496148 4.4443733,2.2085037 4.4443733,2.0673926 q 0,-0.4459111 0.3556,-0.7112 0.3556,-0.2652889 1.0442222,-0.2652889 0.6265334,0 1.1401778,0.2201333 0.5136445,0.2201333 0.9313334,0.5813778 0.4233333,0.3612444 0.7676444,0.7845778 h -0.8636 Q 7.4020622,2.2141481 6.9335733,1.9657926 6.4707289,1.717437 5.95144,1.717437 q -0.3668889,0 -0.5588,0.1354667 -0.1862667,0.1298222 -0.1862667,0.3612444 0,0.1185334 0.033867,0.2314223 0.033867,0.1072444 0.084667,0.1919111 h 0.592666 V 3.2583704 H 5.3813511 V 6.1483259 H 4.6249955 Z"
           style="font-style:normal;font-variant:normal;font-weight:bold;font-stretch:normal;font-family:'Noto Sans Devanagari';-inkscape-font-specification:'Noto Sans Devanagari Bold';fill:#5fd35f;stroke-width:0.26458332px"
           id="path2107"
           inkscape:connector-curvature="0" />
        <path
           d="M 9.3376657,3.2583704 H 8.8014434 V 6.1483259 H 8.0450879 V 5.4427704 q -0.1919111,0.1072444 -0.3838222,0.1580444 -0.1919112,0.0508 -0.4572001,0.0508 -0.3273777,0 -0.5926666,-0.1128889 Q 6.3517545,5.425837 6.1993545,5.2000592 q -0.1524,-0.2314222 -0.1524,-0.5700888 0,-0.4684889 0.3273778,-0.7450667 0.3330222,-0.2822222 0.8861778,-0.2822222 0.1806222,0 0.3499556,0.016933 0.1693333,0.011289 0.2652888,0.033867 L 7.8193101,4.2800148 Q 7.627399,4.2348592 7.3903323,4.2348592 q -0.2991555,0 -0.4459111,0.1072445 -0.1411111,0.1016 -0.1411111,0.2878667 0,0.2257777 0.1354667,0.3104444 0.1411111,0.084667 0.3330222,0.084667 0.2483555,0 0.4346222,-0.095956 0.1919111,-0.095955 0.3386667,-0.254 V 3.2583704 H 5.8381101 V 2.6374815 h 3.4995556 z"
           style="font-style:normal;font-variant:normal;font-weight:bold;font-stretch:normal;font-family:'Noto Sans Devanagari';-inkscape-font-specification:'Noto Sans Devanagari Bold';fill:#5fd35f;stroke-width:0.26458332px"
           id="path2109"
           inkscape:connector-curvature="0" />
        <path
           d="m 12.659245,2.6374815 v 0.6208889 h -2.201334 v 0.056444 q 0.158045,0.2201333 0.395112,0.3386667 0.242711,0.1128889 0.524933,0.1128889 h 0.112889 q 0.293511,0 0.4572,0.056444 0.163689,0.056444 0.276578,0.1806222 0.07902,0.084667 0.118533,0.2144889 0.03951,0.1241778 0.03951,0.254 0,0.3443111 -0.129822,0.6096 -0.129822,0.2652889 -0.344311,0.4797778 -0.225778,0.2201333 -0.519289,0.3499556 -0.293511,0.1241777 -0.626534,0.1241777 -0.3048,0 -0.474133,-0.056444 Q 10.119245,5.9225481 10.006356,5.8209481 9.8821781,5.7137037 9.7975115,5.5217926 9.7128448,5.324237 9.7128448,4.9065481 V 3.2583704 H 9.1992004 V 2.6374815 Z m -2.111022,2.6924 q 0.07338,0.084667 0.259644,0.084667 0.293511,0 0.581378,-0.2709333 0.124178,-0.1128889 0.191911,-0.2427111 0.06773,-0.1298222 0.06773,-0.2652889 0,-0.1241778 -0.07902,-0.1749778 -0.07338,-0.056444 -0.197556,-0.056444 h -0.05644 q -0.169333,0 -0.3048,-0.033867 -0.129822,-0.033867 -0.299156,-0.1298222 -0.1524,-0.090311 -0.259644,-0.2032 0,0.045155 0,0.090311 0.0056,0.045156 0.0056,0.090311 v 0.6942667 q 0,0.1975555 0.02258,0.2878666 0.02258,0.084667 0.06773,0.1298223 z"
           style="font-style:normal;font-variant:normal;font-weight:bold;font-stretch:normal;font-family:'Noto Sans Bengali';-inkscape-font-specification:'Noto Sans Bengali Bold';fill:#00d400"
           id="path2111"
           inkscape:connector-curvature="0" />
        <path
           d="M 14.379389,2.6374815 V 3.2583704 H 13.837523 V 6.1483259 H 13.092456 V 3.6421926 Q 13.024723,3.4672148 12.900545,3.3656148 12.776367,3.2583704 12.578812,3.2583704 h -0.02822 V 2.6374815 h 0.112889 q 0.129822,0 0.242711,0.067733 0.112889,0.067733 0.208845,0.2878667 -0.01129,-0.028222 -0.01693,-0.1298223 -0.0056,-0.1016 -0.0056,-0.1749777 V 2.2649481 h 0.6096 l 0.129822,0.3725334 z"
           style="font-style:normal;font-variant:normal;font-weight:bold;font-stretch:normal;font-family:'Noto Sans Bengali';-inkscape-font-specification:'Noto Sans Bengali Bold';fill:#00d400"
           id="path2113"
           inkscape:connector-curvature="0" />
        <path
           d="M 15.00482,4.8292566 Q 14.770553,4.6225508 14.638262,4.3304067 14.508726,4.0355066 14.508726,3.7075335 q 0,-0.4547526 0.212218,-0.8157986 0.212218,-0.3638021 0.603581,-0.5594835 0.394119,-0.1984375 0.920529,-0.1984375 0.595313,0 1.025261,0.2204861 0.432704,0.2204861 0.658702,0.6311415 0.225998,0.4078993 0.225998,0.9591146 0,0.5980685 -0.278363,1.1134548 L 18.436135,5.7001767 17.832554,6.1246125 17.15456,5.2206194 q 0.311436,-0.4630208 0.311436,-1.1685764 0,-0.5815321 -0.327973,-0.9232856 -0.325217,-0.3445095 -0.887457,-0.3445095 -0.496093,0 -0.788237,0.2673394 -0.289388,0.2645833 -0.289388,0.6917752 0,0.2949002 0.162608,0.507118 0.270096,-0.2259982 0.683507,-0.2259982 0.43546,0 0.719336,0.2618272 0.286632,0.2618273 0.286632,0.7027995 0,0.432704 -0.278364,0.7000434 -0.278363,0.2645833 -0.738628,0.2645833 -0.451997,0 -0.733117,-0.2590711 -0.281119,-0.2590712 -0.281119,-0.7055556 0,-0.099219 0.01102,-0.1598524 z m 1.003212,-0.2287544 q -0.179145,0 -0.278364,0.1047309 -0.09922,0.1047309 -0.09922,0.2838759 0,0.1901693 0.104731,0.2921441 0.104731,0.099219 0.272852,0.099219 0.173633,0 0.275607,-0.107487 0.104731,-0.107487 0.104731,-0.2838759 0,-0.181901 -0.101975,-0.2838759 Q 16.18442,4.6005024 16.008031,4.6005024 Z m 1.105186,1.298112 z"
           style="font-style:normal;font-variant:normal;font-weight:bold;font-stretch:normal;font-family:'Noto Sans Oriya';-inkscape-font-specification:'Noto Sans Oriya Bold';fill:#2aff80"
           id="path2115"
           inkscape:connector-curvature="0" />
      </g>
      <flowRoot
         xml:space="preserve"
         id="flowRoot2099"
         style="fill:black;stroke:none;stroke-opacity:1;stroke-width:1px;stroke-linejoin:miter;stroke-linecap:butt;fill-opacity:1;font-family:'Anglepoise Lampshade';font-style:normal;font-weight:normal;font-size:21.33333333px;line-height:125%;letter-spacing:0px;word-spacing:0px;-inkscape-font-specification:'Anglepoise Lampshade';font-stretch:normal;font-variant:normal"><flowRegion
           id="flowRegion2101"><rect
             id="rect2103"
             width="64.177864"
             height="24.774544"
             x="-6.1346488"
             y="-8.9355125" /></flowRegion><flowPara
           id="flowPara2105" /></flowRoot>      <g
         aria-label="SMIT"
         style="font-style:normal;font-variant:normal;font-weight:normal;font-stretch:normal;font-size:5.64444447px;line-height:125%;font-family:'Noto Serif';-inkscape-font-specification:'Noto Serif';letter-spacing:0px;word-spacing:0px;fill:#ffd42a;fill-opacity:1;stroke:none;stroke-width:0.26458332px;stroke-linecap:butt;stroke-linejoin:miter;stroke-opacity:1"
         id="text2120">
        <path
           d="m 26.266821,5.6288073 q -0.381,0 -0.5969,-0.0889 -0.2159,-0.093133 -0.3048,-0.2286 -0.0889,-0.1397 -0.0889,-0.2751667 0,-0.1439333 0.06773,-0.2286 0.06773,-0.0889 0.1778,-0.1269999 0.110066,-0.0381 0.232833,-0.0381 0,0.3598333 0.160867,0.5460999 0.1651,0.1862667 0.4191,0.1862667 0.245533,0 0.385233,-0.1312333 0.1397,-0.1312334 0.1397,-0.3259667 0,-0.2159 -0.1778,-0.3429 -0.173567,-0.1312333 -0.529167,-0.2794 -0.296333,-0.1227666 -0.4699,-0.2539999 -0.173566,-0.1354667 -0.249766,-0.2963334 -0.07197,-0.1651 -0.07197,-0.3725333 0,-0.2582333 0.135467,-0.4487333 0.135466,-0.1905 0.3683,-0.2963333 0.232833,-0.1058333 0.5334,-0.1058333 0.465666,0 0.681566,0.1439333 0.220134,0.1397 0.220134,0.3471333 0,0.1481667 -0.131234,0.2497667 -0.131233,0.1016 -0.389466,0.1016 0,-0.1185334 -0.04657,-0.254 -0.04233,-0.1354667 -0.1397,-0.2328333 -0.09737,-0.097367 -0.262467,-0.097367 -0.173566,0 -0.296333,0.1016 -0.122767,0.097367 -0.122767,0.2878666 0,0.1227667 0.05503,0.2243667 0.05503,0.097367 0.207433,0.1989666 0.1524,0.097367 0.436033,0.2116667 0.436034,0.1778 0.6223,0.3852333 0.186267,0.2032 0.186267,0.5122333 0,0.2751667 -0.143933,0.4826 -0.1397,0.2074333 -0.397934,0.3259666 -0.258233,0.1185334 -0.6096,0.1185334 z"
           style="font-style:normal;font-variant:normal;font-weight:bold;font-stretch:normal;font-size:4.23333311px;font-family:'Noto Serif';-inkscape-font-specification:'Noto Serif Bold';fill:#ffd42a;stroke-width:0.26458332px"
           id="path827" />
        <path
           d="M 27.748223,5.5864739 V 5.3621073 h 0.1778 q 0.0889,0 0.1524,-0.042333 0.0635,-0.042333 0.0635,-0.2116667 V 3.0464741 q 0,-0.1693333 -0.0635,-0.2116667 -0.0635,-0.046567 -0.1524,-0.046567 h -0.1778 V 2.5638741 h 1.2192 l 0.702733,2.0446999 0.6731,-2.0446999 h 1.198034 v 0.2243667 h -0.1778 q -0.09313,0 -0.156634,0.046567 -0.05927,0.046567 -0.05927,0.2286 v 2.0235332 q 0,0.1820334 0.05927,0.2286 0.0635,0.046567 0.156634,0.046567 h 0.1778 V 5.5864739 H 30.186623 V 5.3621073 h 0.04233 q 0.135467,0 0.198967,-0.0381 0.06773,-0.042333 0.06773,-0.1989667 V 2.9829741 L 29.640523,5.5864739 H 29.352657 L 28.459423,2.9829741 v 2.1039665 q 0,0.1820334 0.08043,0.2286 0.08467,0.046567 0.232833,0.046567 h 0.0254 v 0.2243666 z"
           style="font-style:normal;font-variant:normal;font-weight:bold;font-stretch:normal;font-size:4.23333311px;font-family:'Noto Serif';-inkscape-font-specification:'Noto Serif Bold';fill:#ffd42a;stroke-width:0.26458332px"
           id="path829" />
        <path
           d="M 31.774851,5.5864739 V 5.3621073 h 0.1778 q 0.09313,0 0.1524,-0.046567 0.0635,-0.046567 0.0635,-0.2286 V 3.0634074 q 0,-0.1820333 -0.0635,-0.2286 -0.05927,-0.046567 -0.1524,-0.046567 h -0.1778 V 2.5638741 h 1.4605 v 0.2243667 h -0.1778 q -0.09313,0 -0.156633,0.046567 -0.05927,0.046567 -0.05927,0.2286 v 2.0235332 q 0,0.1820334 0.05927,0.2286 0.0635,0.046567 0.156633,0.046567 h 0.1778 v 0.2243666 z"
           style="font-style:normal;font-variant:normal;font-weight:bold;font-stretch:normal;font-size:4.23333311px;font-family:'Noto Serif';-inkscape-font-specification:'Noto Serif Bold';fill:#ffd42a;stroke-width:0.26458332px"
           id="path831" />
        <path
           d="M 34.003237,5.5864739 V 5.3621073 h 0.1778 q 0.09313,0 0.1524,-0.046567 0.0635,-0.046567 0.0635,-0.2286 V 2.8221074 h -0.338666 q -0.1905,0 -0.262467,0.080433 -0.07197,0.080433 -0.0889,0.2201334 l -0.02963,0.2624666 h -0.283634 l 0.02117,-0.8212666 h 2.637367 l 0.02117,0.8212666 h -0.283633 l -0.02963,-0.2624666 q -0.01693,-0.1397 -0.0889,-0.2201334 -0.07197,-0.080433 -0.262467,-0.080433 h -0.338667 v 2.2648332 q 0,0.1820334 0.05927,0.2286 0.0635,0.046567 0.156633,0.046567 h 0.1778 v 0.2243666 z"
           style="font-style:normal;font-variant:normal;font-weight:bold;font-stretch:normal;font-size:4.23333311px;font-family:'Noto Serif';-inkscape-font-specification:'Noto Serif Bold';fill:#ffd42a;stroke-width:0.26458332px"
           id="path833" />
      </g>
      <text
         xml:space="preserve"
         style="font-style:normal;font-variant:normal;font-weight:normal;font-stretch:normal;font-size:5.64444447px;line-height:125%;font-family:'Noto Serif';-inkscape-font-specification:'Noto Serif';letter-spacing:0px;word-spacing:0px;fill:#55ddff;fill-opacity:1;stroke:none;stroke-width:0.26458332px;stroke-linecap:butt;stroke-linejoin:miter;stroke-opacity:1;"
         x="19.156139"
         y="5.9610415"
         id="text2126"><tspan
           sodipodi:role="line"
           id="tspan2124"
           x="19.156139"
           y="5.9610415"
           style="font-style:normal;font-variant:normal;font-weight:bold;font-stretch:normal;font-family:'Noto Sans';-inkscape-font-specification:'Noto Sans Bold';stroke-width:0.26458332px;fill:#55ddff;">@</tspan></text>
    </g>
  </g>
</svg>
